<svg preserveAspectRatio="none" width="100%" height="100%" overflow="visible" style="display: block;" viewBox="0 0 15.75 22.75" fill="none" xmlns="http://www.w3.org/2000/svg">
<path id="Vector" d="M15.75 5.64812V1.75C15.75 1.28587 15.5656 0.840752 15.2374 0.512563C14.9092 0.184374 14.4641 0 14 0H1.75C1.28587 0 0.840752 0.184374 0.512563 0.512563C0.184374 0.840752 0 1.28587 0 1.75V5.6875C0.000591161 5.95907 0.0641046 6.22682 0.185557 6.46972C0.307009 6.71263 0.483095 6.92408 0.7 7.0875L6.41703 11.375L0.7 15.6625C0.483095 15.8259 0.307009 16.0374 0.185557 16.2803C0.0641046 16.5232 0.000591161 16.7909 0 17.0625V21C0 21.4641 0.184374 21.9092 0.512563 22.2374C0.840752 22.5656 1.28587 22.75 1.75 22.75H14C14.4641 22.75 14.9092 22.5656 15.2374 22.2374C15.5656 21.9092 15.75 21.4641 15.75 21V17.1019C15.7493 16.8315 15.6863 16.565 15.5658 16.3229C15.4454 16.0809 15.2707 15.8698 15.0555 15.7063L9.32641 11.375L15.0555 7.04375C15.2709 6.88033 15.4457 6.66935 15.5661 6.42726C15.6866 6.18517 15.7495 5.91853 15.75 5.64812ZM13.3689 16.625H2.33297L7.875 12.4688L13.3689 16.625ZM1.75 21V18.375H14V21H1.75ZM14 5.64812L7.875 10.2812L1.75 5.6875V1.75H14V5.64812Z" fill="var(--fill-0, #A90831)"/>
</svg>
