<svg preserveAspectRatio="xMidYMid meet" width="100%" height="100%" overflow="visible" style="display: block;" viewBox="0 0 34.1837 28.875" fill="none" xmlns="http://www.w3.org/2000/svg">
<path id="Vector" d="M34.125 27.5625C34.125 27.9106 33.9867 28.2444 33.7406 28.4906C33.4944 28.7367 33.1606 28.875 32.8125 28.875H1.3125C0.964403 28.875 0.630564 28.7367 0.384422 28.4906C0.138281 28.2444 0 27.9106 0 27.5625V1.3125C0 0.964403 0.138281 0.630564 0.384422 0.384423C0.630564 0.138281 0.964403 0 1.3125 0C1.6606 0 1.99444 0.138281 2.24058 0.384423C2.48672 0.630564 2.625 0.964403 2.625 1.3125V16.7951L10.9479 9.51562C11.1744 9.31737 11.4621 9.20298 11.7629 9.19163C12.0637 9.18028 12.3592 9.27266 12.6 9.45328L22.2485 16.6901L31.9479 8.20312C32.0751 8.07724 32.2266 7.97868 32.3933 7.91352C32.56 7.84836 32.7382 7.81796 32.917 7.8242C33.0959 7.83044 33.2715 7.87319 33.4332 7.94981C33.5949 8.02643 33.7393 8.13531 33.8574 8.26976C33.9755 8.4042 34.0648 8.56138 34.1199 8.73162C34.1751 8.90187 34.1948 9.08159 34.1779 9.25973C34.161 9.43788 34.1079 9.61069 34.0218 9.76755C33.9356 9.92441 33.8184 10.062 33.6771 10.1719L23.1771 19.3594C22.9506 19.5576 22.6629 19.672 22.3621 19.6834C22.0613 19.6947 21.7658 19.6023 21.525 19.4217L11.8765 12.1882L2.625 20.283V26.25H32.8125C33.1606 26.25 33.4944 26.3883 33.7406 26.6344C33.9867 26.8806 34.125 27.2144 34.125 27.5625Z" fill="var(--fill-0, #A90831)"/>
</svg>
