<svg preserveAspectRatio="xMidYMid meet" width="100%" height="100%" overflow="visible" style="display: block;" viewBox="0 0 41.995 28.8721" fill="none" xmlns="http://www.w3.org/2000/svg">
<path id="Vector" d="M41.7197 9.82773L37.5329 1.4507C37.3786 1.14237 37.1652 0.867446 36.9047 0.641624C36.6442 0.415801 36.3417 0.243506 36.0146 0.134576C35.6875 0.0256456 35.3422 -0.0177847 34.9983 0.00676477C34.6544 0.0313143 34.3187 0.123363 34.0104 0.277654L29.9302 2.31695L21.335 0.0430446C21.1144 -0.0143482 20.8829 -0.0143482 20.6623 0.0430446L12.0671 2.31695L7.98685 0.277654C7.67855 0.123363 7.34287 0.0313143 6.99899 0.00676477C6.65511 -0.0177847 6.30976 0.0256456 5.98266 0.134576C5.65557 0.243506 5.35314 0.415801 5.09264 0.641624C4.83213 0.867446 4.61867 1.14237 4.46443 1.4507L0.277553 9.82609C0.123262 10.1344 0.0312134 10.4701 0.00666384 10.814C-0.0178857 11.1578 0.0255446 11.5032 0.134475 11.8303C0.243405 12.1574 0.4157 12.4598 0.641523 12.7203C0.867345 12.9808 1.14227 13.1943 1.4506 13.3485L5.88029 15.565L14.9841 22.0668C15.1183 22.1622 15.269 22.2318 15.4287 22.2719L25.9287 24.8969C26.1486 24.952 26.379 24.9493 26.5976 24.8889C26.8161 24.8285 27.0152 24.7126 27.1756 24.5523L36.2105 15.5158L40.5451 13.3485C41.1673 13.037 41.6404 12.4912 41.8604 11.831C42.0804 11.1707 42.0292 10.4502 41.7181 9.82773H41.7197ZM32.7143 15.3025L27.069 10.7809C26.8161 10.5784 26.4972 10.4766 26.1737 10.495C25.8502 10.5135 25.545 10.651 25.3168 10.881C22.3948 13.8243 19.1382 13.4519 17.0611 12.1394L24.1552 5.24875H29.374L33.8382 14.1754L32.7143 15.3025ZM6.81216 2.62375L10.1705 4.30047L5.97544 12.6759L2.62365 11.0008L6.81216 2.62375ZM25.8434 22.1685L16.3097 19.7863L8.23787 14.0212L12.8316 4.83367L20.9986 2.66968L22.6065 3.09461L15.2236 10.2609L15.2105 10.2756C14.9326 10.5535 14.7206 10.8903 14.5903 11.2611C14.4599 11.6319 14.4145 12.0272 14.4573 12.4179C14.5001 12.8085 14.6302 13.1846 14.8378 13.5183C15.0454 13.8521 15.3252 14.1349 15.6568 14.346C19.0299 16.5002 23.1003 16.1507 26.3061 13.5257L30.8424 17.1695L25.8434 22.1685ZM36.0153 12.6742L31.8284 4.30703L35.1851 2.62375L39.3736 11.0008L36.0153 12.6742ZM21.6188 27.8779C21.5479 28.1616 21.3843 28.4134 21.154 28.5935C20.9236 28.7737 20.6397 28.8717 20.3473 28.8721C20.2395 28.872 20.1321 28.8587 20.0274 28.8327L13.1909 27.1232C13.031 27.0837 12.8801 27.0141 12.7463 26.9181L8.42326 23.8305C8.15744 23.6218 7.98238 23.3186 7.93452 22.984C7.88666 22.6495 7.96969 22.3094 8.16632 22.0345C8.36295 21.7596 8.65803 21.5712 8.99011 21.5085C9.32219 21.4457 9.66567 21.5135 9.94904 21.6977L14.0686 24.6409L20.6705 26.2881C21.0081 26.3726 21.2984 26.5877 21.4775 26.8861C21.6565 27.1845 21.7097 27.5419 21.6254 27.8795L21.6188 27.8779Z" fill="var(--fill-0, #A90831)"/>
</svg>
