<svg preserveAspectRatio="none" width="100%" height="100%" overflow="visible" style="display: block;" viewBox="0 0 34.1239 34.1299" fill="none" xmlns="http://www.w3.org/2000/svg">
<path id="Vector" d="M0.525 16.8049C0.662888 16.9084 0.819795 16.9836 0.986763 17.0264C1.15373 17.0692 1.32749 17.0786 1.49812 17.0543C1.66874 17.0299 1.8329 16.9721 1.98121 16.8843C2.12952 16.7965 2.25908 16.6803 2.3625 16.5424C3.15716 15.4829 4.1876 14.6229 5.37221 14.0306C6.55682 13.4383 7.86307 13.1299 9.1875 13.1299C10.5119 13.1299 11.8182 13.4383 13.0028 14.0306C14.1874 14.6229 15.2178 15.4829 16.0125 16.5424C16.2216 16.8207 16.5326 17.0044 16.8772 17.0534C17.2218 17.1023 17.5717 17.0123 17.85 16.8033C17.9492 16.7295 18.0371 16.6416 18.1109 16.5424C18.9055 15.4829 19.936 14.6229 21.1206 14.0306C22.3052 13.4383 23.6114 13.1299 24.9359 13.1299C26.2603 13.1299 27.5665 13.4383 28.7511 14.0306C29.9358 14.6229 30.9662 15.4829 31.7609 16.5424C31.9699 16.8209 32.2811 17.0049 32.6258 17.054C32.9706 17.1031 33.3207 17.0132 33.5992 16.8041C33.8777 16.595 34.0617 16.2839 34.1107 15.9392C34.1598 15.5944 34.0699 15.2443 33.8609 14.9658C32.6991 13.4083 31.1498 12.182 29.3672 11.4089C30.3445 10.5167 31.0292 9.34977 31.3315 8.06139C31.6337 6.77302 31.5394 5.42337 31.0609 4.18956C30.5824 2.95575 29.742 1.89543 28.6501 1.14776C27.5582 0.400088 26.2658 0 24.9424 0C23.6191 0 22.3266 0.400088 21.2347 1.14776C20.1428 1.89543 19.3025 2.95575 18.824 4.18956C18.3455 5.42337 18.2511 6.77302 18.5534 8.06139C18.8556 9.34977 19.5404 10.5167 20.5177 11.4089C19.2305 11.9655 18.0612 12.7623 17.0723 13.7567C16.0835 12.7623 14.9142 11.9655 13.627 11.4089C14.6043 10.5167 15.289 9.34977 15.5913 8.06139C15.8936 6.77302 15.7992 5.42337 15.3207 4.18956C14.8422 2.95575 14.0019 1.89543 12.91 1.14776C11.8181 0.400088 10.5256 0 9.20227 0C7.87891 0 6.58648 0.400088 5.49457 1.14776C4.40267 1.89543 3.56232 2.95575 3.08381 4.18956C2.60529 5.42337 2.51098 6.77302 2.81323 8.06139C3.11549 9.34977 3.8002 10.5167 4.7775 11.4089C2.98701 12.1795 1.43013 13.4066 0.2625 14.9674C0.159084 15.1053 0.0838397 15.2622 0.0410632 15.4292C-0.00171323 15.5962 -0.011184 15.7699 0.0131914 15.9406C0.0375667 16.1112 0.0953112 16.2753 0.183127 16.4237C0.270944 16.572 0.387112 16.7015 0.525 16.8049ZM24.9375 2.62994C25.7163 2.62994 26.4775 2.86087 27.1251 3.29353C27.7726 3.72619 28.2773 4.34114 28.5753 5.06063C28.8733 5.78011 28.9513 6.57181 28.7993 7.33561C28.6474 8.09941 28.2724 8.80101 27.7217 9.35168C27.1711 9.90235 26.4695 10.2774 25.7057 10.4293C24.9419 10.5812 24.1502 10.5032 23.4307 10.2052C22.7112 9.9072 22.0962 9.40252 21.6636 8.755C21.2309 8.10748 21 7.34621 21 6.56744C21 5.52315 21.4148 4.52163 22.1533 3.78321C22.8917 3.04479 23.8932 2.62994 24.9375 2.62994ZM9.1875 2.62994C9.96626 2.62994 10.7275 2.86087 11.3751 3.29353C12.0226 3.72619 12.5273 4.34114 12.8253 5.06063C13.1233 5.78011 13.2013 6.57181 13.0493 7.33561C12.8974 8.09941 12.5224 8.80101 11.9717 9.35168C11.4211 9.90235 10.7195 10.2774 9.95567 10.4293C9.19187 10.5812 8.40017 10.5032 7.68068 10.2052C6.9612 9.9072 6.34625 9.40252 5.91359 8.755C5.48093 8.10748 5.25 7.34621 5.25 6.56744C5.25 5.52315 5.66484 4.52163 6.40327 3.78321C7.14169 3.04479 8.14321 2.62994 9.1875 2.62994ZM29.3672 28.4714C30.3445 27.5792 31.0292 26.4123 31.3315 25.1239C31.6337 23.8355 31.5394 22.4859 31.0609 21.2521C30.5824 20.0182 29.742 18.9579 28.6501 18.2103C27.5582 17.4626 26.2658 17.0625 24.9424 17.0625C23.6191 17.0625 22.3266 17.4626 21.2347 18.2103C20.1428 18.9579 19.3025 20.0182 18.824 21.2521C18.3455 22.4859 18.2511 23.8355 18.5534 25.1239C18.8556 26.4123 19.5404 27.5792 20.5177 28.4714C19.2305 29.028 18.0612 29.8248 17.0723 30.8192C16.0835 29.8248 14.9142 29.028 13.627 28.4714C14.6043 27.5792 15.289 26.4123 15.5913 25.1239C15.8936 23.8355 15.7992 22.4859 15.3207 21.2521C14.8422 20.0182 14.0019 18.9579 12.91 18.2103C11.8181 17.4626 10.5256 17.0625 9.20227 17.0625C7.87891 17.0625 6.58648 17.4626 5.49457 18.2103C4.40267 18.9579 3.56232 20.0182 3.08381 21.2521C2.60529 22.4859 2.51098 23.8355 2.81323 25.1239C3.11549 26.4123 3.8002 27.5792 4.7775 28.4714C2.98701 29.242 1.43013 30.4691 0.2625 32.0299C0.159084 32.1678 0.0838397 32.3247 0.0410632 32.4917C-0.00171323 32.6587 -0.011184 32.8324 0.0131914 33.0031C0.0375667 33.1737 0.0953112 33.3378 0.183127 33.4862C0.270944 33.6345 0.387112 33.764 0.525 33.8674C0.662888 33.9709 0.819795 34.0461 0.986763 34.0889C1.15373 34.1317 1.32749 34.1411 1.49812 34.1168C1.66874 34.0924 1.8329 34.0346 1.98121 33.9468C2.12952 33.859 2.25908 33.7428 2.3625 33.6049C3.15716 32.5454 4.1876 31.6854 5.37221 31.0931C6.55682 30.5008 7.86307 30.1924 9.1875 30.1924C10.5119 30.1924 11.8182 30.5008 13.0028 31.0931C14.1874 31.6854 15.2178 32.5454 16.0125 33.6049C16.2216 33.8832 16.5326 34.0669 16.8772 34.1159C17.2218 34.1648 17.5717 34.0748 17.85 33.8658C17.9492 33.792 18.0371 33.7041 18.1109 33.6049C18.9055 32.5454 19.936 31.6854 21.1206 31.0931C22.3052 30.5008 23.6114 30.1924 24.9359 30.1924C26.2603 30.1924 27.5665 30.5008 28.7511 31.0931C29.9358 31.6854 30.9662 32.5454 31.7609 33.6049C31.9699 33.8834 32.2811 34.0674 32.6258 34.1165C32.9706 34.1656 33.3207 34.0757 33.5992 33.8666C33.8777 33.6575 34.0617 33.3464 34.1107 33.0017C34.1598 32.6569 34.0699 32.3068 33.8609 32.0283C32.6991 30.4708 31.1498 29.2445 29.3672 28.4714ZM9.1875 19.6924C9.96626 19.6924 10.7275 19.9234 11.3751 20.356C12.0226 20.7887 12.5273 21.4036 12.8253 22.1231C13.1233 22.8426 13.2013 23.6343 13.0493 24.3981C12.8974 25.1619 12.5224 25.8635 11.9717 26.4142C11.4211 26.9648 10.7195 27.3399 9.95567 27.4918C9.19187 27.6437 8.40017 27.5657 7.68068 27.2677C6.9612 26.9697 6.34625 26.465 5.91359 25.8175C5.48093 25.17 5.25 24.4087 5.25 23.6299C5.25 22.5857 5.66484 21.5841 6.40327 20.8457C7.14169 20.1073 8.14321 19.6924 9.1875 19.6924ZM24.9375 19.6924C25.7163 19.6924 26.4775 19.9234 27.1251 20.356C27.7726 20.7887 28.2773 21.4036 28.5753 22.1231C28.8733 22.8426 28.9513 23.6343 28.7993 24.3981C28.6474 25.1619 28.2724 25.8635 27.7217 26.4142C27.1711 26.9648 26.4695 27.3399 25.7057 27.4918C24.9419 27.6437 24.1502 27.5657 23.4307 27.2677C22.7112 26.9697 22.0962 26.465 21.6636 25.8175C21.2309 25.17 21 24.4087 21 23.6299C21 22.5857 21.4148 21.5841 22.1533 20.8457C22.8917 20.1073 23.8932 19.6924 24.9375 19.6924Z" fill="var(--fill-0, #A90831)"/>
</svg>
