<svg preserveAspectRatio="xMidYMid meet" width="100%" height="100%" overflow="visible" style="display: block;" viewBox="0 0 34.125 30.1875" fill="none" xmlns="http://www.w3.org/2000/svg">
<path id="Vector" d="M32.8125 27.5625H31.5V1.3125C31.5 0.964403 31.3617 0.630564 31.1156 0.384423C30.8694 0.138281 30.5356 0 30.1875 0H21C20.6519 0 20.3181 0.138281 20.0719 0.384423C19.8258 0.630564 19.6875 0.964403 19.6875 1.3125V7.875H11.8125C11.4644 7.875 11.1306 8.01328 10.8844 8.25942C10.6383 8.50556 10.5 8.8394 10.5 9.1875V15.75H3.9375C3.5894 15.75 3.25556 15.8883 3.00942 16.1344C2.76328 16.3806 2.625 16.7144 2.625 17.0625V27.5625H1.3125C0.964403 27.5625 0.630564 27.7008 0.384422 27.9469C0.138281 28.1931 0 28.5269 0 28.875C0 29.2231 0.138281 29.5569 0.384422 29.8031C0.630564 30.0492 0.964403 30.1875 1.3125 30.1875H32.8125C33.1606 30.1875 33.4944 30.0492 33.7406 29.8031C33.9867 29.5569 34.125 29.2231 34.125 28.875C34.125 28.5269 33.9867 28.1931 33.7406 27.9469C33.4944 27.7008 33.1606 27.5625 32.8125 27.5625ZM22.3125 2.625H28.875V27.5625H22.3125V2.625ZM13.125 10.5H19.6875V27.5625H13.125V10.5ZM5.25 18.375H10.5V27.5625H5.25V18.375Z" fill="var(--fill-0, #A90831)"/>
</svg>
