<svg preserveAspectRatio="none" width="100%" height="100%" overflow="visible" style="display: block;" viewBox="0 0 39.3755 17.0647" fill="none" xmlns="http://www.w3.org/2000/svg">
<path id="Vector" d="M23.2331 2.2504L8.53309 16.6879C8.2876 16.9294 7.95704 17.0647 7.6127 17.0647C7.26835 17.0647 6.9378 16.9294 6.69231 16.6879L0.392306 10.5011C0.269391 10.3802 0.171487 10.2363 0.104183 10.0776C0.0368794 9.91894 0.00149356 9.74853 4.62687e-05 9.57615C-0.00140102 9.40377 0.0311185 9.23279 0.0957482 9.07298C0.160378 8.91317 0.255852 8.76765 0.37672 8.64474C0.497587 8.52182 0.641481 8.42392 0.800185 8.35662C0.958889 8.28931 1.1293 8.25393 1.30168 8.25248C1.47405 8.25103 1.64503 8.28355 1.80484 8.34818C1.96466 8.41281 2.11017 8.50828 2.23309 8.62915L7.6127 13.912L21.3939 0.376808C21.6424 0.132706 21.9776 -0.00270137 22.3259 0.000375404C22.4984 0.00189887 22.6689 0.0373748 22.8276 0.104778C22.9864 0.172182 23.1303 0.270192 23.2511 0.393214C23.372 0.516236 23.4675 0.661861 23.532 0.821772C23.5966 0.981683 23.6291 1.15275 23.6276 1.32521C23.626 1.49766 23.5906 1.66813 23.5232 1.82687C23.4558 1.98562 23.3577 2.12953 23.2347 2.2504H23.2331ZM38.9995 0.393214C38.8787 0.2701 38.7348 0.172007 38.576 0.104545C38.4173 0.0370834 38.2468 0.00157493 38.0743 5.12141e-05C37.9018 -0.0014725 37.7307 0.0310177 37.5708 0.0956646C37.4109 0.160312 37.2653 0.255847 37.1423 0.376808L23.3611 13.912L20.2718 10.8768C20.0233 10.6329 19.6881 10.4977 19.34 10.501C18.9919 10.5042 18.6593 10.6456 18.4154 10.894C18.1715 11.1425 18.0363 11.4777 18.0395 11.8258C18.0428 12.1739 18.1842 12.5065 18.4326 12.7504L22.4407 16.6879C22.6862 16.9294 23.0167 17.0647 23.3611 17.0647C23.7054 17.0647 24.036 16.9294 24.2814 16.6879L38.9814 2.2504C39.1047 2.1297 39.2029 1.98588 39.2705 1.82719C39.3381 1.6685 39.3738 1.49803 39.3754 1.32555C39.3771 1.15306 39.3448 0.98194 39.2803 0.821962C39.2158 0.661985 39.1203 0.516292 38.9995 0.393214Z" fill="var(--fill-0, #A90831)"/>
</svg>
