<svg preserveAspectRatio="none" width="100%" height="100%" overflow="visible" style="display: block;" viewBox="0 0 31.5308 30.1884" fill="none" xmlns="http://www.w3.org/2000/svg">
<path id="Vector" d="M31.5308 15.7509C31.5308 16.099 31.3926 16.4329 31.1464 16.679C30.9003 16.9252 30.5664 17.0634 30.2183 17.0634H11.8433C11.4952 17.0634 11.1614 16.9252 10.9153 16.679C10.6691 16.4329 10.5308 16.099 10.5308 15.7509C10.5308 15.4028 10.6691 15.069 10.9153 14.8229C11.1614 14.5767 11.4952 14.4384 11.8433 14.4384H30.2183C30.5664 14.4384 30.9003 14.5767 31.1464 14.8229C31.3926 15.069 31.5308 15.4028 31.5308 15.7509ZM11.8433 6.56344H30.2183C30.5664 6.56344 30.9003 6.42516 31.1464 6.17902C31.3926 5.93288 31.5308 5.59904 31.5308 5.25094C31.5308 4.90284 31.3926 4.569 31.1464 4.32286C30.9003 4.07672 30.5664 3.93844 30.2183 3.93844H11.8433C11.4952 3.93844 11.1614 4.07672 10.9153 4.32286C10.6691 4.569 10.5308 4.90284 10.5308 5.25094C10.5308 5.59904 10.6691 5.93288 10.9153 6.17902C11.1614 6.42516 11.4952 6.56344 11.8433 6.56344ZM30.2183 24.9384H11.8433C11.4952 24.9384 11.1614 25.0767 10.9153 25.3229C10.6691 25.569 10.5308 25.9028 10.5308 26.2509C10.5308 26.599 10.6691 26.9329 10.9153 27.179C11.1614 27.4252 11.4952 27.5634 11.8433 27.5634H30.2183C30.5664 27.5634 30.9003 27.4252 31.1464 27.179C31.3926 26.9329 31.5308 26.599 31.5308 26.2509C31.5308 25.9028 31.3926 25.569 31.1464 25.3229C30.9003 25.0767 30.5664 24.9384 30.2183 24.9384ZM1.93068 3.80063L2.65583 3.43641V11.8134C2.65583 12.1615 2.79412 12.4954 3.04026 12.7415C3.2864 12.9877 3.62024 13.1259 3.96833 13.1259C4.31643 13.1259 4.65027 12.9877 4.89641 12.7415C5.14255 12.4954 5.28083 12.1615 5.28083 11.8134V1.31344C5.281 1.0896 5.22391 0.86944 5.11499 0.673883C5.00608 0.478327 4.84896 0.313874 4.65858 0.196157C4.46819 0.0784402 4.25086 0.0113706 4.02725 0.0013231C3.80363 -0.00872437 3.58117 0.0385843 3.38099 0.138753L0.755991 1.45125C0.444444 1.60703 0.207539 1.88018 0.0973906 2.21063C0.0428507 2.37425 0.0210718 2.547 0.0332981 2.71904C0.0455243 2.89108 0.0915162 3.05902 0.168647 3.21328C0.245778 3.36755 0.352538 3.50511 0.482831 3.61811C0.613125 3.73111 0.7644 3.81734 0.92802 3.87188C1.25847 3.98203 1.61913 3.9564 1.93068 3.80063ZM7.8681 20.4628C7.79552 19.943 7.61858 19.4432 7.34792 18.9935C7.07726 18.5438 6.71846 18.1535 6.2931 17.846C5.44114 17.2274 4.38294 16.9622 3.33991 17.1059C2.29688 17.2496 1.34984 17.7911 0.696929 18.6171C0.447385 18.9375 0.249741 19.2952 0.111226 19.677C0.0388951 19.8413 0.00104646 20.0187 2.13948e-05 20.1982C-0.00100367 20.3778 0.0348162 20.5556 0.105266 20.7207C0.175715 20.8859 0.279296 21.0348 0.409602 21.1583C0.539908 21.2818 0.694168 21.3773 0.862841 21.4388C1.03151 21.5003 1.21101 21.5266 1.39023 21.5159C1.56946 21.5053 1.74459 21.458 1.90481 21.377C2.06503 21.296 2.20692 21.1829 2.3217 21.0449C2.43649 20.9068 2.52173 20.7467 2.57216 20.5744C2.6181 20.4485 2.68342 20.3306 2.76576 20.2249C2.99728 19.9364 3.33113 19.7483 3.69783 19.6997C4.06453 19.6512 4.43584 19.7458 4.73451 19.9641C4.87818 20.0657 4.99968 20.1955 5.09162 20.3455C5.18357 20.4956 5.24404 20.6627 5.26935 20.8369C5.2925 21.0041 5.28162 21.1744 5.23736 21.3373C5.1931 21.5003 5.11637 21.6526 5.01177 21.7852C5.00699 21.7909 5.00261 21.7969 4.99865 21.8032L0.291694 28.0901C0.145834 28.2852 0.0571541 28.5171 0.0355799 28.7597C0.0140058 29.0024 0.0603888 29.2462 0.169538 29.464C0.278687 29.6818 0.446294 29.8649 0.653599 29.9929C0.860905 30.1208 1.09973 30.1885 1.34333 30.1884H6.59333C6.94143 30.1884 7.27527 30.0502 7.52141 29.804C7.76755 29.5579 7.90583 29.224 7.90583 28.8759C7.90583 28.5278 7.76755 28.194 7.52141 27.9479C7.27527 27.7017 6.94143 27.5634 6.59333 27.5634H3.96833L7.09865 23.3749C7.41602 22.9661 7.64773 22.4976 7.77993 21.9972C7.91214 21.4969 7.94212 20.975 7.8681 20.4628Z" fill="var(--fill-0, #A90831)"/>
</svg>
